<?xml version="1.0" encoding="UTF-8"?><svg id="uuid-5195d2a0-c9fe-4e94-a328-8450a9ab15b6" xmlns="http://www.w3.org/2000/svg" width="100" height="100" viewBox="70 85 160 60"><defs><style>.uuid-e9264c45-a40c-4c51-b40e-a12b7e8941c1{fill:#fff;}.uuid-b2e90bca-339a-44ac-84f9-0989e745f201{fill:#e00;}</style></defs><g id="uuid-9f655d1b-808e-490c-9bb8-2580d56b5d05" transform="scale(1.50) translate(-52, -40)"><path class="uuid-e9264c45-a40c-4c51-b40e-a12b7e8941c1" d="M168.6826772843,120.5467287846c6.313881721,0,15.4490813907-1.3021449684,15.4490813907-8.8121836511.0188756842-.5796051852-.0336697232-1.1593316647-.1564579359-1.7260969949l-3.7600655642-16.33231863c-.8680966456-3.5935132573-1.6302014339-5.2237175792-7.9390388574-8.3781362909-4.8956640016-2.5033467089-15.5601213961-6.636896777-18.7145401078-6.636896777-2.9373945504,0-3.7903506022,3.7853024541-7.2930183719,3.7853024541-3.3714428731,0-5.8747891007-2.8263591176-9.0292078125-2.8263591176-3.0282419633,0-5.0016462323,2.064251682-6.5258615849,6.3088371828,0,0-4.2445857415,11.9716495483-4.7896682937,13.7078409141-.0866367722.3188227057-.124080092.6490066326-.1110361548.9791328003,0,4.6533990997,18.3208654181,19.9106893683,42.8698132923,19.9106893683M185.1007951791,114.7829758386c.8731409431,4.1335515121.8731409431,4.5675998349.8731409431,5.1126804618,0,7.0658979143-7.9440908561,10.9874734131-18.3864759411,10.9874734131-23.6000962614.0151405937-44.2728942686-13.8138318087-44.2728942686-22.9540738506-.0013650408-1.272281572.2580061906-2.5313459293.7621067136-3.699501264-8.489171483.4239520266-19.4766429708,1.9380730082-19.4766429708,11.6385420467,0,15.888174011,37.6460928252,35.4708069138,67.4540866515,35.4708069138,22.8531320668,0,28.6168850127-10.3363970783,28.6168850127-18.4975120958,0-6.4198735782-5.5517769327-13.7078399515-15.5601175455-18.0584156249"/></g></svg>