<svg width="44" height="43" viewBox="0 0 44 43" fill="none" xmlns="http://www.w3.org/2000/svg">
                            <path fill-rule="evenodd" clip-rule="evenodd" d="M21.6245 28.9753C21.6245 29.8018 21.5195 30.5481 21.3095 31.2142C21.0995 31.868 20.8215 32.4478 20.4756 32.9535C20.1297 33.4469 19.7282 33.8725 19.2712 34.2302C18.8141 34.5756 18.3323 34.8593 17.8258 35.0814C17.3317 35.3034 16.8252 35.4699 16.3064 35.581C15.7999 35.6797 15.3181 35.729 14.861 35.729H1.81596V30.9182H14.824C15.4787 30.9182 15.9728 30.7516 16.3064 30.4186C16.6399 30.0855 16.8067 29.6044 16.8067 28.9753C16.7449 27.6924 16.0964 27.051 14.861 27.051H7.39348C6.33109 27.051 5.4293 26.866 4.6881 26.4959C3.94691 26.1258 3.3416 25.6633 2.87217 25.1082C2.4151 24.5531 2.08156 23.9548 1.87155 23.3134C1.6739 22.6719 1.57507 22.0736 1.57507 21.5185C1.57507 20.4454 1.76655 19.5449 2.1495 18.8171C2.53245 18.077 3.01423 17.4787 3.59484 17.0223C4.17544 16.5659 4.80546 16.239 5.48489 16.0416C6.16432 15.8319 6.80052 15.7271 7.39348 15.7271H19.2341V20.5379H7.43054C7.18347 20.5379 6.98582 20.5687 6.83758 20.6304C6.70169 20.6797 6.59669 20.7537 6.52257 20.8524C6.4608 20.9388 6.42374 21.0375 6.41139 21.1485C6.39904 21.2472 6.39286 21.3459 6.39286 21.4445C6.40521 21.6419 6.44227 21.7961 6.50404 21.9071C6.56581 22.0181 6.63993 22.0983 6.7264 22.1477C6.82523 22.197 6.93023 22.2278 7.04141 22.2402C7.16494 22.2402 7.2823 22.2402 7.39348 22.2402H14.861C16.0964 22.2402 17.1464 22.4622 18.0111 22.9063C18.8759 23.3504 19.5738 23.9116 20.105 24.5901C20.6362 25.2562 21.0192 25.984 21.2539 26.7735C21.5009 27.5629 21.6245 28.2969 21.6245 28.9753Z" fill="white"></path>
                                                        <g transform="translate(-60, 0)">
                                                            <path fill-rule="evenodd" clip-rule="evenodd" d="M102.063 20.5379H91.223C90.5683 20.5379 90.0741 20.7044 89.7406 21.0375C89.407 21.3582 89.2403 21.8331 89.2403 22.4622V35.729H84.4225V22.4622C84.4225 21.6357 84.5275 20.8956 84.7375 20.2418C84.9475 19.588 85.2255 19.0145 85.5713 18.521C85.9296 18.0153 86.3372 17.5897 86.7943 17.2443C87.2514 16.8866 87.727 16.5967 88.2211 16.3747C88.7276 16.1526 89.2341 15.9923 89.7406 15.8936C90.2594 15.7826 90.7412 15.7271 91.1859 15.7271H102.063V20.5379Z" fill="#2290D5"></path>
                                                        </g>
                                                </svg>