<?xml version="1.0" encoding="UTF-8"?>
<svg width="209px" height="50px" clip-rule="evenodd" fill-rule="evenodd" image-rendering="optimizeQuality" shape-rendering="geometricPrecision" text-rendering="geometricPrecision" version="1.1" xmlns="http://www.w3.org/2000/svg">
  <g stroke-width="3.672" aria-label="skillrank">
    <path d="m25.108 33.692q0 1.4415-0.36576 2.6034-0.36576 1.1403-0.96819 2.0224-0.60243 0.86061-1.3985 1.4846-0.79607 0.60243-1.6782 0.9897-0.86061 0.38728-1.7643 0.58091-0.88213 0.17212-1.6782 0.17212h-15.147v-5.594h15.104q1.1403 0 1.7212-0.58091t0.58091-1.6782q-0.10758-2.2376-2.2591-2.2376h-8.6707q-1.8503 0-3.1412-0.64546t-2.1085-1.6136q-0.79607-0.96819-1.1618-2.087-0.34425-1.1188-0.34425-2.087 0-1.8718 0.66698-3.1412 0.66698-1.2909 1.6782-2.087t2.1946-1.1403q1.1833-0.36576 2.2161-0.36576h13.748v5.594h-13.705q-0.43031 0-0.68849 0.10758-0.23667 0.08606-0.36576 0.25818-0.10758 0.15061-0.12909 0.34424-0.021515 0.17212-0.021515 0.34424 0.021515 0.34425 0.12909 0.53788 0.10758 0.19364 0.25818 0.2797 0.17212 0.08606 0.36576 0.10758 0.21515 0 0.40879 0h8.6707q2.1515 0 3.6576 0.77455t2.4312 1.9579q0.92516 1.1618 1.334 2.5388 0.43031 1.377 0.43031 2.5603z"/>
    <path d="m56.349 41.545h-8.0682l-11.274-10.887q-0.94668-0.86061-0.88213-2.1515 0.04303-0.60243 0.30122-1.1188 0.2797-0.53788 0.75304-0.90364l10.22-8.2404h8.9504l-13.167 10.607zm-21.644 0h-5.594v-33.091h5.594z"/>
    <path d="m65.17 13.511h-5.594v-5.0561h5.594zm0 28.034h-5.594v-23.258h5.594z"/>
    <path d="m80.747 41.545h-2.4958q-1.2049 0-2.5818-0.40879-1.3555-0.40879-2.5388-1.334-1.1833-0.94668-1.9579-2.4312-0.77455-1.5061-0.77455-3.6791v-25.237h5.594v25.237q0 1.0327 0.64546 1.6567 0.64546 0.60243 1.6136 0.60243h2.4958z"/>
    <path d="m94.56 41.545h-2.4958q-1.2049 0-2.5818-0.40879-1.3555-0.40879-2.5388-1.334-1.1833-0.94668-1.9579-2.4312-0.77455-1.5061-0.77455-3.6791v-25.237h5.594v25.237q0 1.0327 0.64546 1.6567 0.64546 0.60243 1.6136 0.60243h2.4958z"/>
    <path d="m118.51 23.881h-12.586q-1.1403 0-1.7212 0.58091-0.58091 0.5594-0.58091 1.6567v15.426h-5.594v-15.426q0-1.4415 0.36576-2.5818 0.36576-1.1403 0.96819-2.0009 0.62394-0.88213 1.42-1.4846 0.79607-0.62394 1.6567-1.0112 0.88213-0.38728 1.7643-0.5594 0.90364-0.19364 1.6782-0.19364h12.63z" fill="#2d94d6"/>
    <path d="m144.39 33.843q0 1.1618-0.4088 2.5173-0.40879 1.334-1.334 2.4958-0.90364 1.1403-2.3882 1.9149-1.463 0.77455-3.5715 0.77455h-10.091q-1.1618 0-2.5173-0.40879-1.334-0.40879-2.4958-1.3124-1.1403-0.92516-1.9149-2.3882-0.77455-1.4846-0.77455-3.5931 0-1.1618 0.40879-2.5173t1.3124-2.4958q0.92516-1.1618 2.3882-1.9364 1.4846-0.77455 3.5931-0.77455h10.091v5.3358h-10.091q-1.1403 0-1.7643 0.71001-0.62395 0.68849-0.62395 1.7212 0 1.0973 0.71001 1.7212 0.73152 0.60243 1.7212 0.60243h10.048q1.1403 0 1.7642-0.68849 0.62395-0.68849 0.62395-1.7212v-7.8101q0-1.0973-0.68849-1.7427-0.66698-0.64546-1.6997-0.64546h-12.285v-5.3143h12.285q1.1618 0 2.4958 0.40879 1.3555 0.40879 2.4958 1.334 1.1618 0.90364 1.9364 2.3882 0.77456 1.463 0.77456 3.5715z"/>
    <path d="m174.94 41.545h-5.594v-12.909q0-1.0973-0.38728-1.9579-0.36576-0.88213-1.0112-1.5061t-1.5276-0.94667q-0.86061-0.34425-1.8718-0.34425h-9.7895v17.664h-5.594v-20.483q0-0.58091 0.21515-1.0758 0.21516-0.51637 0.60243-0.88213 0.38728-0.38728 0.90365-0.60243 0.51636-0.21515 1.0973-0.21515h12.608q1.0542 0 2.2161 0.23667 1.1833 0.23667 2.3237 0.77455 1.1618 0.51637 2.1946 1.334 1.0542 0.79607 1.8503 1.9579 0.81758 1.1403 1.2909 2.6464t0.47334 3.3994z"/>
    <path d="m207.17 41.545h-8.0682l-11.274-10.887q-0.94668-0.86061-0.88213-2.1515 0.043-0.60243 0.30122-1.1188 0.27969-0.53788 0.75303-0.90364l10.22-8.2404h8.9504l-13.167 10.607zm-21.644 0h-5.594v-33.091h5.594z"/>
  </g>
</svg>
