<svg width="180" height="43" viewBox="0 0 180 43" fill="none" xmlns="http://www.w3.org/2000/svg">
                            <path fill-rule="evenodd" clip-rule="evenodd" d="M21.6245 28.9753C21.6245 29.8018 21.5195 30.5481 21.3095 31.2142C21.0995 31.868 20.8215 32.4478 20.4756 32.9535C20.1297 33.4469 19.7282 33.8725 19.2712 34.2302C18.8141 34.5756 18.3323 34.8593 17.8258 35.0814C17.3317 35.3034 16.8252 35.4699 16.3064 35.581C15.7999 35.6797 15.3181 35.729 14.861 35.729H1.81596V30.9182H14.824C15.4787 30.9182 15.9728 30.7516 16.3064 30.4186C16.6399 30.0855 16.8067 29.6044 16.8067 28.9753C16.7449 27.6924 16.0964 27.051 14.861 27.051H7.39348C6.33109 27.051 5.4293 26.866 4.6881 26.4959C3.94691 26.1258 3.3416 25.6633 2.87217 25.1082C2.4151 24.5531 2.08156 23.9548 1.87155 23.3134C1.6739 22.6719 1.57507 22.0736 1.57507 21.5185C1.57507 20.4454 1.76655 19.5449 2.1495 18.8171C2.53245 18.077 3.01423 17.4787 3.59484 17.0223C4.17544 16.5659 4.80546 16.239 5.48489 16.0416C6.16432 15.8319 6.80052 15.7271 7.39348 15.7271H19.2341V20.5379H7.43054C7.18347 20.5379 6.98582 20.5687 6.83758 20.6304C6.70169 20.6797 6.59669 20.7537 6.52257 20.8524C6.4608 20.9388 6.42374 21.0375 6.41139 21.1485C6.39904 21.2472 6.39286 21.3459 6.39286 21.4445C6.40521 21.6419 6.44227 21.7961 6.50404 21.9071C6.56581 22.0181 6.63993 22.0983 6.7264 22.1477C6.82523 22.197 6.93023 22.2278 7.04141 22.2402C7.16494 22.2402 7.2823 22.2402 7.39348 22.2402H14.861C16.0964 22.2402 17.1464 22.4622 18.0111 22.9063C18.8759 23.3504 19.5738 23.9116 20.105 24.5901C20.6362 25.2562 21.0192 25.984 21.2539 26.7735C21.5009 27.5629 21.6245 28.2969 21.6245 28.9753Z" fill="white"></path>
                            <path fill-rule="evenodd" clip-rule="evenodd" d="M48.53 35.7289H41.5812L31.8715 26.3663C31.328 25.8729 31.0747 25.2561 31.1118 24.516C31.1365 24.1706 31.223 23.8498 31.3712 23.5538C31.5318 23.2454 31.748 22.9864 32.0198 22.7767L40.8215 15.6899H48.53L37.1896 24.812L48.53 35.7289ZM29.8888 35.7289H25.071V7.271H29.8888V35.7289Z" fill="white"></path>
                            <path fill-rule="evenodd" clip-rule="evenodd" d="M56.1272 11.6192H51.3094V7.271H56.1272V11.6192ZM56.1272 35.7289H51.3094V15.727H56.1272V35.7289Z" fill="white"></path>
                            <path fill-rule="evenodd" clip-rule="evenodd" d="M69.5429 35.7289H67.3935C66.7017 35.7289 65.9605 35.6117 65.1699 35.3773C64.3916 35.143 63.6628 34.7606 62.9833 34.2301C62.3039 33.6874 61.7418 32.9904 61.2971 32.1393C60.8524 31.2758 60.63 30.2211 60.63 28.9752V7.271H65.4478V28.9752C65.4478 29.5673 65.6331 30.0422 66.0037 30.4C66.3743 30.7454 66.8376 30.9181 67.3935 30.9181H69.5429V35.7289Z" fill="white"></path>
                            <path fill-rule="evenodd" clip-rule="evenodd" d="M81.4392 35.7289H79.2897C78.5979 35.7289 77.8567 35.6117 77.0661 35.3773C76.2878 35.143 75.559 34.7606 74.8796 34.2301C74.2001 33.6874 73.638 32.9904 73.1933 32.1393C72.7486 31.2758 72.5262 30.2211 72.5262 28.9752V7.271H77.344V28.9752C77.344 29.5673 77.5293 30.0422 77.8999 30.4C78.2705 30.7454 78.7338 30.9181 79.2897 30.9181H81.4392V35.7289Z" fill="white"></path>
                            <path fill-rule="evenodd" clip-rule="evenodd" d="M102.063 20.5379H91.223C90.5683 20.5379 90.0741 20.7044 89.7406 21.0375C89.407 21.3582 89.2403 21.8331 89.2403 22.4622V35.729H84.4225V22.4622C84.4225 21.6357 84.5275 20.8956 84.7375 20.2418C84.9475 19.588 85.2255 19.0145 85.5713 18.521C85.9296 18.0153 86.3372 17.5897 86.7943 17.2443C87.2514 16.8866 87.727 16.5967 88.2211 16.3747C88.7276 16.1526 89.2341 15.9923 89.7406 15.8936C90.2594 15.7826 90.7412 15.7271 91.1859 15.7271H102.063V20.5379Z" fill="#2290D5"></path>
                            <path fill-rule="evenodd" clip-rule="evenodd" d="M124.355 29.1049C124.355 29.771 124.237 30.4926 124.002 31.2697C123.768 32.0345 123.385 32.75 122.854 33.4161C122.335 34.0699 121.649 34.6188 120.797 35.0629C119.957 35.507 118.931 35.729 117.721 35.729H109.03C108.363 35.729 107.641 35.6118 106.862 35.3774C106.096 35.1431 105.38 34.7668 104.713 34.2487C104.058 33.7183 103.508 33.0337 103.064 32.1949C102.619 31.3437 102.397 30.3137 102.397 29.1049C102.397 28.4387 102.514 27.7171 102.749 26.94C102.983 26.1628 103.36 25.4474 103.879 24.7936C104.41 24.1275 105.096 23.5724 105.936 23.1283C106.788 22.6842 107.82 22.4622 109.03 22.4622H117.721V27.051H109.03C108.376 27.051 107.869 27.2545 107.511 27.6616C107.153 28.0563 106.973 28.5498 106.973 29.1419C106.973 29.771 107.177 30.2644 107.585 30.6221C108.005 30.9675 108.499 31.1402 109.067 31.1402H117.721C118.376 31.1402 118.882 30.9428 119.24 30.5481C119.599 30.1534 119.778 29.6599 119.778 29.0678V22.3512C119.778 21.7221 119.58 21.2225 119.185 20.8524C118.802 20.4824 118.314 20.2973 117.721 20.2973H107.14V15.7271H117.721C118.388 15.7271 119.104 15.8442 119.87 16.0786C120.649 16.313 121.365 16.6954 122.02 17.2258C122.687 17.7439 123.243 18.4285 123.687 19.2797C124.132 20.1185 124.355 21.1423 124.355 22.3512V29.1049Z" fill="white"></path>
                            <path fill-rule="evenodd" clip-rule="evenodd" d="M150.667 35.729H145.849V24.6271C145.849 23.998 145.738 23.4367 145.516 22.9433C145.306 22.4375 145.015 22.0058 144.645 21.6481C144.274 21.2903 143.836 21.019 143.329 20.8339C142.835 20.6366 142.298 20.5379 141.717 20.5379H133.286V35.729H128.468V18.114C128.468 17.7809 128.53 17.4725 128.653 17.1888C128.777 16.8928 128.95 16.6399 129.172 16.4302C129.395 16.2081 129.654 16.0354 129.951 15.9121C130.247 15.7887 130.562 15.7271 130.896 15.7271H141.754C142.359 15.7271 142.996 15.7949 143.663 15.9306C144.342 16.0663 145.009 16.2883 145.664 16.5967C146.331 16.8928 146.961 17.2752 147.554 17.7439C148.159 18.2003 148.691 18.7616 149.148 19.4277C149.617 20.0815 149.988 20.8401 150.259 21.7036C150.531 22.5671 150.667 23.5416 150.667 24.6271V35.729Z" fill="white"></path>
                            <path fill-rule="evenodd" clip-rule="evenodd" d="M178.425 35.7289H171.476L161.766 26.3663C161.223 25.8729 160.97 25.2561 161.007 24.516C161.031 24.1706 161.118 23.8498 161.266 23.5538C161.427 23.2454 161.643 22.9864 161.915 22.7767L170.716 15.6899H178.425L167.085 24.812L178.425 35.7289ZM159.784 35.7289H154.966V7.271H159.784V35.7289Z" fill="white"></path>
                        </svg>